<?xml version="1.0" encoding="utf-8"?>
<!-- Generator: Adobe Illustrator 16.0.0, SVG Export Plug-In . SVG Version: 6.00 Build 0)  -->
<!DOCTYPE svg PUBLIC "-//W3C//DTD SVG 1.1 Tiny//EN" "http://www.w3.org/Graphics/SVG/1.1/DTD/svg11-tiny.dtd">
<svg version="1.1" baseProfile="tiny" id="shapes" xmlns="http://www.w3.org/2000/svg" xmlns:xlink="http://www.w3.org/1999/xlink"
	 x="0px" y="0px" width="800px" height="800px" viewBox="0 0 800 800" xml:space="preserve">
<path d="M400,51C207.252,51,51,207.252,51,400c0,192.747,156.252,349,349,349c192.747,0,349-156.253,349-349
	C749,207.252,592.747,51,400,51z M399.5,591c-25.405,0-46-20.596-46-46s20.595-46,46-46s46,20.596,46,46S424.905,591,399.5,591z
	 M454.408,218.707c0,0-16.775,202.277-16.775,204.661c0,4.34-0.744,8.504-2.096,12.383c-0.665,2.58-1.818,4.98-3.342,7.109
	C425.598,453.735,413.646,461,400,461c-13.648,0-25.598-7.265-32.195-18.14c-1.523-2.129-2.677-4.529-3.342-7.109
	c-1.351-3.879-2.095-8.043-2.095-12.383c0-2.384-16.776-204.661-16.776-204.661c-0.597-11.21,8.102-20.382,19.328-20.382h70.162
	C446.306,198.325,455.004,207.497,454.408,218.707z"/>
</svg>
