<?xml version="1.0" encoding="utf-8"?>
<!-- Generator: Adobe Illustrator 16.0.0, SVG Export Plug-In . SVG Version: 6.00 Build 0)  -->
<!DOCTYPE svg PUBLIC "-//W3C//DTD SVG 1.1 Tiny//EN" "http://www.w3.org/Graphics/SVG/1.1/DTD/svg11-tiny.dtd">
<svg version="1.1" baseProfile="tiny" id="shapes" xmlns="http://www.w3.org/2000/svg" xmlns:xlink="http://www.w3.org/1999/xlink"
	 x="0px" y="0px" width="800px" height="800px" viewBox="0 0 800 800" xml:space="preserve">
<g>
	<circle cx="399.365" cy="590.92" r="58.418"/>
	<path d="M444.552,150.663H355.45c-14.256,0-25.304,11.648-24.545,25.884c0,0,21.306,256.88,21.306,259.907
		c0,5.514,0.944,10.802,2.66,15.729c0.844,3.274,2.309,6.323,4.244,9.028c8.378,13.809,23.554,23.036,40.886,23.036
		c17.33,0,32.508-9.228,40.887-23.036c1.934-2.705,3.398-5.754,4.243-9.028c1.717-4.927,2.661-10.215,2.661-15.729
		c0-3.026,21.305-259.907,21.305-259.907C469.852,162.311,458.805,150.663,444.552,150.663z"/>
</g>
</svg>
