<?xml version="1.0" encoding="utf-8"?>
<!-- Generator: Adobe Illustrator 16.0.0, SVG Export Plug-In . SVG Version: 6.00 Build 0)  -->
<!DOCTYPE svg PUBLIC "-//W3C//DTD SVG 1.1 Tiny//EN" "http://www.w3.org/Graphics/SVG/1.1/DTD/svg11-tiny.dtd">
<svg version="1.1" baseProfile="tiny" id="shapes" xmlns="http://www.w3.org/2000/svg" xmlns:xlink="http://www.w3.org/1999/xlink"
	 x="0px" y="0px" width="800px" height="800px" viewBox="0 0 800 800" xml:space="preserve">
<path d="M400,100c-165.686,0-300,134.314-300,300s134.314,300,300,300s300-134.314,300-300S565.686,100,400,100z M238.78,238.78
	C281.843,195.716,339.099,172,400,172c48.726,0,95.109,15.196,133.767,43.321L215.321,533.767C187.196,495.109,172,448.726,172,400
	C172,339.099,195.716,281.843,238.78,238.78z M561.221,561.221C518.157,604.284,460.901,628,400,628
	c-48.726,0-95.11-15.195-133.767-43.32L584.68,266.233C612.805,304.89,628,351.274,628,400
	C628,460.901,604.284,518.157,561.221,561.221z"/>
</svg>
