<?xml version="1.0" encoding="utf-8"?>
<!-- Generator: Adobe Illustrator 16.0.0, SVG Export Plug-In . SVG Version: 6.00 Build 0)  -->
<!DOCTYPE svg PUBLIC "-//W3C//DTD SVG 1.1 Tiny//EN" "http://www.w3.org/Graphics/SVG/1.1/DTD/svg11-tiny.dtd">
<svg version="1.1" baseProfile="tiny" id="shapes" xmlns="http://www.w3.org/2000/svg" xmlns:xlink="http://www.w3.org/1999/xlink"
	 x="0px" y="0px" width="800px" height="800px" viewBox="0 0 800 800" xml:space="preserve">
<path d="M684.051,348.724l-68.102-5.448c-0.081-0.006-0.159-0.001-0.24-0.007c-5.184-19.761-13.012-38.448-23.081-55.667
	c0.059-0.066,0.123-0.123,0.181-0.191l44.303-52.008c5.707-6.699,5.285-17.271-0.938-23.493l-48.084-48.084
	c-6.223-6.222-16.795-6.645-23.493-0.938l-52.008,44.303c-0.067,0.058-0.125,0.122-0.191,0.181
	c-17.219-10.069-35.906-17.897-55.667-23.081c-0.005-0.081,0-0.159-0.007-0.24l-5.447-68.102C450.574,107.177,442.8,100,434,100h-68
	c-8.8,0-16.574,7.177-17.276,15.949l-5.448,68.102c-0.006,0.081-0.001,0.16-0.007,0.24c-19.761,5.183-38.448,13.011-55.667,23.08
	c-0.066-0.058-0.124-0.123-0.191-0.18l-52.008-44.303c-6.699-5.707-17.271-5.284-23.493,0.938l-48.084,48.084
	c-6.222,6.222-6.645,16.794-0.938,23.493l44.303,52.008c0.058,0.068,0.122,0.125,0.18,0.191
	c-10.069,17.219-17.897,35.906-23.08,55.667c-0.081,0.005-0.159,0-0.24,0.007l-68.102,5.448C107.177,349.426,100,357.2,100,366v68
	c0,8.8,7.177,16.574,15.949,17.276l68.102,5.447c0.081,0.007,0.16,0.002,0.24,0.007c5.183,19.761,13.011,38.448,23.081,55.667
	c-0.059,0.066-0.123,0.124-0.181,0.191l-44.303,52.008c-5.707,6.699-5.284,17.271,0.938,23.493l48.083,48.084
	c6.223,6.223,16.795,6.645,23.494,0.938l52.008-44.304c0.067-0.058,0.125-0.122,0.191-0.18
	c17.219,10.068,35.906,17.896,55.667,23.08c0.005,0.081,0,0.159,0.007,0.24l5.448,68.102C349.426,692.823,357.2,700,366,700h68
	c8.8,0,16.574-7.177,17.276-15.949l5.447-68.102c0.007-0.081,0.002-0.159,0.007-0.24c19.761-5.184,38.448-13.012,55.667-23.081
	c0.066,0.059,0.124,0.123,0.191,0.181l52.008,44.303c6.698,5.707,17.271,5.285,23.493-0.938l48.084-48.084
	c6.223-6.223,6.645-16.795,0.938-23.493l-44.303-52.008c-0.058-0.067-0.122-0.125-0.181-0.191
	c10.069-17.219,17.897-35.906,23.081-55.667c0.081-0.005,0.159,0,0.24-0.007l68.102-5.447C692.823,450.574,700,442.8,700,434v-68
	C700,357.2,692.823,349.426,684.051,348.724z M400,538c-36.861,0-71.516-14.354-97.581-40.419C276.354,471.516,262,436.861,262,400
	s14.354-71.516,40.419-97.581C328.484,276.354,363.139,262,400,262c36.86,0,71.516,14.354,97.58,40.419
	C523.646,328.484,538,363.139,538,400c0,36.86-14.354,71.516-40.42,97.58C471.516,523.646,436.86,538,400,538z"/>
</svg>
