<?xml version="1.0" encoding="utf-8"?>
<!-- Generator: Adobe Illustrator 16.0.0, SVG Export Plug-In . SVG Version: 6.00 Build 0)  -->
<!DOCTYPE svg PUBLIC "-//W3C//DTD SVG 1.1 Tiny//EN" "http://www.w3.org/Graphics/SVG/1.1/DTD/svg11-tiny.dtd">
<svg version="1.1" baseProfile="tiny" id="shapes" xmlns="http://www.w3.org/2000/svg" xmlns:xlink="http://www.w3.org/1999/xlink"
	 x="0px" y="0px" width="800px" height="800px" viewBox="0 0 800 800" xml:space="preserve">
<path d="M400,51C207.252,51,51,207.252,51,400c0,192.747,156.252,349,349,349c192.747,0,349-156.253,349-349
	C749,207.252,592.747,51,400,51z M399.5,628c-21.539,0-39-17.462-39-39s17.461-39,39-39s39,17.462,39,39S421.039,628,399.5,628z
	 M517.885,342.478c-4.201,10.406-9.449,19.389-15.599,26.698c-6.213,7.387-13.176,13.757-20.695,18.935
	c-7.943,5.478-15.497,10.989-22.455,16.38c-7.229,5.602-13.728,12.102-19.317,19.318c-5.835,7.525-9.544,16.989-11.023,28.128
	l-0.035,0.266c0,0,0.033,19.467,0.033,19.902c0,17.286-14.062,31.349-31.349,31.349c-17.152,0-31.211-13.954-31.341-31.106
	l-0.03-3.97h-0.065v-19.444c1.017-14.398,3.8-26.573,8.273-36.188c4.536-9.739,9.881-18.147,15.889-24.991
	c6.099-6.941,12.596-13.013,19.309-18.043c7.022-5.269,13.629-10.626,19.638-15.923c6.237-5.507,11.358-11.656,15.223-18.28
	c4.025-6.903,5.884-15.541,5.522-25.674c-0.013-17.077-4.384-30.003-12.993-38.424c-8.606-8.408-20.568-12.671-35.554-12.671
	c-10.059,0-18.896,2.012-26.267,5.981c-7.324,3.945-13.424,9.285-18.13,15.872l-0.672,0.929c-3.317,4.562-8.869,12.199-9.743,26.865
	c-1.075,18.007-14.554,31.587-31.355,31.587c-17.286,0-31.348-14.063-31.348-31.349c0-0.126-0.003-0.374-0.009-0.722
	c-0.161-10.618,0.403-15.836,0.905-18.345c3.642-18.204,13.009-37.316,23.865-48.689c10.562-11.064,23.507-19.832,38.475-26.059
	c14.987-6.23,32.016-9.389,50.611-9.389c24.164,0,44.549,3.337,60.586,9.92c16.014,6.576,29.064,14.835,38.787,24.549
	c9.668,9.677,16.677,20.217,20.829,31.326c4.18,11.211,6.299,21.762,6.299,31.356C524.146,318.747,522.04,332.174,517.885,342.478z"
	/>
</svg>
