<?xml version="1.0" encoding="utf-8"?>
<!-- Generator: Adobe Illustrator 16.0.0, SVG Export Plug-In . SVG Version: 6.00 Build 0)  -->
<!DOCTYPE svg PUBLIC "-//W3C//DTD SVG 1.1 Tiny//EN" "http://www.w3.org/Graphics/SVG/1.1/DTD/svg11-tiny.dtd">
<svg version="1.1" baseProfile="tiny" id="shapes" xmlns="http://www.w3.org/2000/svg" xmlns:xlink="http://www.w3.org/1999/xlink"
	 x="0px" y="0px" width="800px" height="800px" viewBox="0 0 800 800" xml:space="preserve">
<path d="M400.727,650.02c-25.516,0-46.201-20.687-46.201-46.201c0-25.514,20.685-46.199,46.201-46.199
	c25.516,0,46.199,20.686,46.199,46.199C446.926,629.333,426.242,650.02,400.727,650.02z M540.968,311.783
	c-4.976,12.327-11.193,22.968-18.479,31.626c-7.359,8.75-15.608,16.297-24.517,22.43c-9.41,6.49-18.357,13.018-26.601,19.405
	c-8.563,6.636-16.262,14.336-22.883,22.885c-6.914,8.915-11.306,20.126-13.061,33.321l-0.04,0.315c0,0,0.039,23.061,0.039,23.576
	c0,20.477-16.659,37.137-37.137,37.137c-20.318,0-36.974-16.531-37.127-36.85l-0.037-4.703h-0.077v-23.034
	c1.204-17.057,4.502-31.479,9.801-42.869c5.374-11.537,11.706-21.498,18.822-29.605c7.226-8.224,14.921-15.416,22.874-21.375
	c8.318-6.242,16.146-12.587,23.264-18.863c7.389-6.523,13.456-13.808,18.033-21.655c4.77-8.178,6.97-18.41,6.542-30.414
	c-0.016-20.23-5.192-35.543-15.393-45.518c-10.195-9.961-24.365-15.011-42.118-15.011c-11.915,0-22.384,2.383-31.115,7.085
	c-8.677,4.673-15.902,10.999-21.478,18.803l-0.796,1.101c-3.929,5.404-10.506,14.451-11.542,31.824
	c-1.273,21.332-17.241,37.419-37.144,37.419c-20.478,0-37.136-16.66-37.136-37.137c0-0.15-0.004-0.442-0.01-0.855
	c-0.191-12.578,0.478-18.761,1.072-21.733c4.314-21.565,15.411-44.205,28.271-57.678c12.513-13.108,27.847-23.494,45.578-30.871
	c17.754-7.38,37.926-11.123,59.956-11.123c28.625,0,52.773,3.953,71.772,11.751c18.97,7.791,34.43,17.575,45.946,29.082
	c11.454,11.463,19.757,23.95,24.676,37.11c4.952,13.28,7.463,25.779,7.463,37.145C548.387,283.671,545.891,299.576,540.968,311.783z
	"/>
</svg>
