<?xml version="1.0" encoding="utf-8"?>
<!-- Generator: Adobe Illustrator 16.0.0, SVG Export Plug-In . SVG Version: 6.00 Build 0)  -->
<!DOCTYPE svg PUBLIC "-//W3C//DTD SVG 1.1 Tiny//EN" "http://www.w3.org/Graphics/SVG/1.1/DTD/svg11-tiny.dtd">
<svg version="1.1" baseProfile="tiny" id="shapes" xmlns="http://www.w3.org/2000/svg" xmlns:xlink="http://www.w3.org/1999/xlink"
	 x="0px" y="0px" width="800px" height="800px" viewBox="0 0 800 800" xml:space="preserve">
<path d="M400,51C207.252,51,51,207.252,51,400c0,192.747,156.252,349,349,349c192.747,0,349-156.253,349-349
	C749,207.252,592.747,51,400,51z M476.677,582.391c0,8.485-10.179,14.852-20.347,15.91c-10.169,1.06-68.357,7.055-95.314-2.821
	c-50.438-18.474-33.197-74.309-19.311-112.39c2.894-7.936,48.484-105.462,30.446-126.883c-5.213-6.192-11.152-6.544-22.436-6.255
	c-11.283,0.29-19.328-6.909-19.328-15.392v-4.079c0-8.486,10.179-14.851,20.346-15.91c10.169-1.059,48.392-7.053,75.348,2.821
	c50.438,18.476,33.197,74.31,19.312,112.391c-2.895,7.936-49.303,106.179-30.446,126.884c10.45,11.476,31.118,6.544,42.401,6.255
	s19.328,6.908,19.328,15.393V582.391z M431,281c-25.405,0-46-20.595-46-46s20.595-46,46-46s46,20.595,46,46S456.405,281,431,281z"/>
</svg>
