<?xml version="1.0" encoding="utf-8"?>
<!-- Generator: Adobe Illustrator 16.0.0, SVG Export Plug-In . SVG Version: 6.00 Build 0)  -->
<!DOCTYPE svg PUBLIC "-//W3C//DTD SVG 1.1 Tiny//EN" "http://www.w3.org/Graphics/SVG/1.1/DTD/svg11-tiny.dtd">
<svg version="1.1" baseProfile="tiny" id="shapes" xmlns="http://www.w3.org/2000/svg" xmlns:xlink="http://www.w3.org/1999/xlink"
	 x="0px" y="0px" width="800px" height="800px" viewBox="0 0 800 800" xml:space="preserve">
<path d="M491.308,623.203v4.943c0,10.282-12.334,17.995-24.655,19.279c-12.322,1.283-82.834,8.547-115.5-3.419
	c-61.119-22.388-40.227-90.047-23.401-136.193c3.507-9.615,58.753-127.796,36.895-153.754c-6.318-7.502-13.514-7.93-27.188-7.58
	c-13.671,0.351-23.421-8.372-23.421-18.652v-4.943c0-10.283,12.335-17.996,24.656-19.279c12.322-1.284,58.64-8.548,91.306,3.418
	c61.119,22.388,40.227,90.048,23.401,136.193c-3.509,9.616-59.745,128.666-36.896,153.756c12.664,13.905,37.709,7.93,51.382,7.58
	C481.56,604.2,491.308,612.922,491.308,623.203z M435.876,150.711c-30.83,0-55.823,24.994-55.823,55.823
	c0,30.831,24.993,55.824,55.823,55.824c30.831,0,55.824-24.993,55.824-55.824C491.7,175.705,466.707,150.711,435.876,150.711z"/>
</svg>
