<?xml version="1.0" encoding="utf-8"?>
<!-- Generator: Adobe Illustrator 16.0.0, SVG Export Plug-In . SVG Version: 6.00 Build 0)  -->
<!DOCTYPE svg PUBLIC "-//W3C//DTD SVG 1.1 Tiny//EN" "http://www.w3.org/Graphics/SVG/1.1/DTD/svg11-tiny.dtd">
<svg version="1.1" baseProfile="tiny" id="shapes" xmlns="http://www.w3.org/2000/svg" xmlns:xlink="http://www.w3.org/1999/xlink"
	 x="0px" y="0px" width="800px" height="800px" viewBox="0 0 800 800" xml:space="preserve">
<path fill-rule="evenodd" d="M306.012,465.354c19.926,31.496,39.862,62.984,59.853,94.438c3.945,6.207,4.137,12.768,3.54,19.577
	c-2.108,23.95-3.88,47.939-6.658,71.812c-1.222,10.514,1.852,15.547,12.295,18.594c34.223,9.985,67.853-8.677,82.846-47.173
	c11.825-30.371,9.873-61.953,6.221-93.22c-4.939-42.259-5.642-42.175,36.913-42.175c30.841-0.004,61.687-0.275,92.523,0.079
	c21.999,0.253,40.516-6.289,51.191-26.53c10.278-19.5,7.309-38.458-7.193-54.888c-5.692-6.448-3.013-9.948,1.042-15.554
	c17.703-24.461,16.271-46.428-5.104-67.784c-5.88-5.876-6.249-9.984-3.98-17.405c8.202-26.856,0.285-46.696-24.677-60.594
	c-8.013-4.464-9.677-8.325-8.165-17.24c5.302-31.271-14.893-57.494-46.512-57.882c-73.411-0.895-158.215,0.469-224.148-0.599
	c-4.414-0.071-15.487,1.804-19.975,3.809C270.217,188.614,250.37,253.687,257,318C264.071,386.596,299.12,454.46,306.012,465.354z
	 M193.355,149.966c0,0,9.479,5.142,19.247,10.44c9.442,5.121,18.262,9.905,18.262,9.905c5.534,3.001,7.945,10.152,5.358,15.893
	c0,0-24.083,57.595-21.065,120.979c2.966,62.278,30.736,118.836,30.736,118.836c3.244,5.396,4.499,12.149-0.688,15.717
	c0,0-9.741,6.702-19.327,13.297c-8.419,5.793-15.828,10.888-15.828,10.888c-5.188,3.568-12.058,2.057-15.269-3.358
	c0,0-44.733-47.396-50.254-151.889c-5.521-104.493,33.995-155.759,33.995-155.759C181.146,149.19,187.821,146.965,193.355,149.966z"
	/>
</svg>
