<?xml version="1.0" encoding="utf-8"?>
<!-- Generator: Adobe Illustrator 16.0.0, SVG Export Plug-In . SVG Version: 6.00 Build 0)  -->
<!DOCTYPE svg PUBLIC "-//W3C//DTD SVG 1.1 Tiny//EN" "http://www.w3.org/Graphics/SVG/1.1/DTD/svg11-tiny.dtd">
<svg version="1.1" baseProfile="tiny" id="shapes" xmlns="http://www.w3.org/2000/svg" xmlns:xlink="http://www.w3.org/1999/xlink"
	 x="0px" y="0px" width="800px" height="800px" viewBox="0 0 800 800" xml:space="preserve">
<path d="M748.526,517.903L638,185.053c-1.822-6.875-7.441-11.053-13.804-11.053c-2.034,0-4.143,0.426-6.23,1.329L481,232.777
	c-3.468,1.5-7.735,2.223-12.112,2.223c-6.491,0-13.225-1.59-17.959-4.593l-116.617-78.233c-4.836-3.068-11.782-4.708-18.432-4.708
	c-4.248,0-8.375,0.668-11.757,2.061l-149.744,61.63c-8.679,3.572-17.356,14.01-19.283,23.195l-84.712,403.86
	c-1.474,7.024,1.396,11.325,6.696,11.325c1.63,0,3.488-0.405,5.521-1.266l195.723-82.668c4.109-1.737,9.439-2.595,14.814-2.595
	c5.934,0,11.925,1.046,16.395,3.111l192.77,89.064c4.072,1.882,9.36,2.814,14.687,2.814c5.816,0,11.677-1.111,16.056-3.307
	l224.599-112.645C746.032,537.841,750.93,526.977,748.526,517.903z M122.91,562.598l57.283-312.951l120.633-43.952L255.96,508.997
	c-6.072,1.035-12.647,2.746-19.214,5.52L122.91,562.598z M302.835,511.957l30.798-302.726L446,278
	c2.527,1.604,4.306,2.78,5.643,3.635l19.693,307.393l-158.54-73.249C309.468,514.241,306.129,512.99,302.835,511.957z
	 M522.694,587.812l-37.912-306.855c3.814-1.128,7.541-2.71,12.218-4.731L609,228l78.745,277.033L522.694,587.812z"/>
</svg>
