<?xml version="1.0" encoding="utf-8"?>
<!-- Generator: Adobe Illustrator 16.0.0, SVG Export Plug-In . SVG Version: 6.00 Build 0)  -->
<!DOCTYPE svg PUBLIC "-//W3C//DTD SVG 1.1 Tiny//EN" "http://www.w3.org/Graphics/SVG/1.1/DTD/svg11-tiny.dtd">
<svg version="1.1" baseProfile="tiny" xmlns="http://www.w3.org/2000/svg" xmlns:xlink="http://www.w3.org/1999/xlink" x="0px"
	 y="0px" width="800px" height="800px" viewBox="0 0 800 800" xml:space="preserve">
<g id="guides">
	<g>
	</g>
	<g>
	</g>
	<g>
	</g>
	<g>
	</g>
	<g>
	</g>
	<g>
	</g>
	<g>
	</g>
	<g>
	</g>
	<g>
	</g>
	<g>
	</g>
	<g>
	</g>
	<g>
	</g>
	<g>
	</g>
	<g>
	</g>
	<g>
	</g>
	<g>
	</g>
</g>
<g id="shapes">
	<path display="none" d="M350.841,101H212.356c-13.304,0.011-16.491,7.716-7.083,17.122L488.044,401L205.272,683.878
		c-9.407,9.406-6.22,17.112,7.083,17.122h138.487c13.303,0.01,31.883-7.679,41.289-17.085l206.522-206.519l59.292-59.296
		c8.229-8.229,9.26-21.044,3.088-30.42c-0.883-1.339-1.911-2.608-3.088-3.783l-59.294-59.295L392.13,118.083
		C382.725,108.677,364.145,100.99,350.841,101z"/>
	<path display="none" d="M450.159,101h138.484c13.305,0.011,16.491,7.716,7.084,17.122L312.957,401l282.771,282.878
		c9.407,9.406,6.221,17.112-7.084,17.122H450.158c-13.303,0.01-31.883-7.679-41.289-17.085L202.347,477.396l-59.292-59.296
		c-8.23-8.229-9.26-21.044-3.088-30.42c0.883-1.339,1.911-2.608,3.088-3.783l59.294-59.295l206.52-206.52
		C418.275,108.677,436.855,100.99,450.159,101z"/>
	<path display="none" d="M100,336.841l0.878-138.484c0.011-13.305,7.716-16.491,17.122-7.084l282,282.77l282.878-282.771
		c9.406-9.407,17.112-6.221,17.122,7.084v138.486c0.01,13.303-7.679,31.883-17.085,41.289L476.396,584.654l-59.295,59.291
		c-8.23,8.23-21.044,9.26-30.42,3.088c-1.339-0.883-2.608-1.91-3.783-3.088l-59.295-59.293l-206.52-206.521
		C107.677,368.725,99.99,350.145,100,336.841z"/>
	<path display="none" d="M100,499.16l0.878,138.484c0.011,13.305,7.716,16.491,17.122,7.084l282-282.771l282.878,282.772
		c9.406,9.407,17.112,6.221,17.122-7.084V499.159c0.01-13.303-7.679-31.883-17.085-41.289L476.396,251.347l-59.295-59.292
		c-8.23-8.229-21.044-9.26-30.42-3.088c-1.339,0.883-2.608,1.911-3.783,3.088l-59.295,59.294L117.083,457.87
		C107.677,467.276,99.99,485.856,100,499.16z"/>
	<path display="none" d="M670,300H130c-16.5,0-30,13.5-30,30v6.841c-0.01,13.304,7.677,31.884,17.083,41.29l206.52,206.521
		l59.295,59.293c1.175,1.178,2.444,2.205,3.783,3.088c9.376,6.172,22.19,5.143,30.42-3.088l59.295-59.291l206.519-206.523
		c9.406-9.406,17.095-27.986,17.085-41.289V330C700,313.5,686.5,300,670,300z"/>
	<path display="none" d="M475,100c-124.264,0-225,100.736-225,225c0,48.947,15.638,94.236,42.178,131.164L109.386,621.175
		c-11.667,11.668-11.667,30.76,0,42.427l28.284,28.284c11.667,11.667,30.759,11.667,42.426,0l165.417-182.868
		C382.131,534.831,426.792,550,475,550c124.264,0,225-100.736,225-225C700,200.736,599.264,100,475,100z M475,474.625
		c-82.636,0-149.625-66.989-149.625-149.625S392.364,175.375,475,175.375S624.625,242.364,624.625,325S557.636,474.625,475,474.625z
		"/>
	<path display="none" d="M475,100c-124.264,0-225,100.736-225,225c0,48.947,15.638,94.236,42.178,131.164L109.386,621.175
		c-11.667,11.668-11.667,30.76,0,42.427l28.284,28.284c11.667,11.667,30.759,11.667,42.426,0l165.417-182.868
		C382.131,534.831,426.792,550,475,550c124.264,0,225-100.736,225-225C700,200.736,599.264,100,475,100z M475,474.625
		c-82.636,0-149.625-66.989-149.625-149.625S392.364,175.375,475,175.375S624.625,242.364,624.625,325S557.636,474.625,475,474.625z
		 M575,350h-75v75h-50v-75h-75v-50h75v-75h50v75h75V350z"/>
	<path display="none" d="M475,100c-124.264,0-225,100.736-225,225c0,48.947,15.638,94.236,42.178,131.164L109.386,621.175
		c-11.667,11.668-11.667,30.76,0,42.427l28.284,28.284c11.667,11.667,30.759,11.667,42.426,0l165.417-182.868
		C382.131,534.831,426.792,550,475,550c124.264,0,225-100.736,225-225C700,200.736,599.264,100,475,100z M475,474.625
		c-82.636,0-149.625-66.989-149.625-149.625S392.364,175.375,475,175.375S624.625,242.364,624.625,325S557.636,474.625,475,474.625z
		 M575,350H375v-50h200V350z"/>
	<path display="none" d="M685,350H450V115c0-8.25-6.75-15-15-15h-70c-8.25,0-15,6.75-15,15v235H115c-8.25,0-15,6.75-15,15v70
		c0,8.25,6.75,15,15,15h235v235c0,8.25,6.75,15,15,15h70c8.25,0,15-6.75,15-15V450h235c8.25,0,15-6.75,15-15v-70
		C700,356.75,693.25,350,685,350z"/>
	<path display="none" d="M606.12,106.425L400,312.545l-206.12-206.12c-7.236-7.236-19.077-7.236-26.313,0l-61.398,61.397
		c-7.236,7.236-7.236,19.077,0,26.313l206.121,206.12l-206.121,206.12c-7.236,7.236-7.236,19.077,0,26.312l61.398,61.398
		c7.236,7.236,19.077,7.236,26.313,0L400,487.968l206.12,206.119c7.236,7.236,19.077,7.236,26.313,0l61.397-61.398
		c7.236-7.235,7.236-19.076,0-26.312l-206.12-206.12l206.12-206.12c7.236-7.236,7.236-19.077,0-26.313l-61.397-61.397
		C625.197,99.189,613.356,99.189,606.12,106.425z"/>
	<path d="M685,350H115c-8.25,0-15,6.75-15,15v70c0,8.25,6.75,15,15,15h570c8.25,0,15-6.75,15-15v-70C700,356.75,693.25,350,685,350z
		"/>
	<path display="none" d="M650,365v70c0,8.25-6.75,15-15,15H165c-8.25,0-15-6.75-15-15v-70c0-8.25,6.75-15,15-15h470
		C643.25,350,650,356.75,650,365z M635,550H165c-8.25,0-15,6.75-15,15v70c0,8.25,6.75,15,15,15h470c8.25,0,15-6.75,15-15v-70
		C650,556.75,643.25,550,635,550z M635,150H165c-8.25,0-15,6.75-15,15v70c0,8.25,6.75,15,15,15h470c8.25,0,15-6.75,15-15v-70
		C650,156.75,643.25,150,635,150z"/>
</g>
</svg>
