<?xml version="1.0" encoding="utf-8"?>
<!-- Generator: Adobe Illustrator 16.0.0, SVG Export Plug-In . SVG Version: 6.00 Build 0)  -->
<!DOCTYPE svg PUBLIC "-//W3C//DTD SVG 1.1 Tiny//EN" "http://www.w3.org/Graphics/SVG/1.1/DTD/svg11-tiny.dtd">
<svg version="1.1" baseProfile="tiny" id="shapes" xmlns="http://www.w3.org/2000/svg" xmlns:xlink="http://www.w3.org/1999/xlink"
	 x="0px" y="0px" width="800px" height="800px" viewBox="0 0 800 800" xml:space="preserve">
<path d="M693.127,318.205l-78.242-4.545l-123.738-7.188l-16.572-42.449l-28.503-73.012l-28.5-73.009
	c0-0.001-0.001-0.002-0.001-0.003c-4.558-11.671-10.565-17.508-16.571-17.508c-6.006,0-12.011,5.833-16.568,17.502
	c-0.001,0.003-0.003,0.006-0.004,0.009l-28.501,73.009l-28.504,73.016l-16.569,42.445l-123.738,7.188l-78.244,4.545
	c-25.02,1.455-29.629,15.636-10.247,31.518c0.001,0.001,0.002,0.003,0.004,0.004l60.629,49.668l60.633,49.671l35.249,28.876
	l-31.4,119.903l-19.856,75.819c-4.325,16.513-0.108,25.846,9.687,25.846c4.587,0,10.398-2.047,17.127-6.363l65.972-42.313
	L401,583.916l170.329,109.246c6.718,4.304,12.521,6.347,17.103,6.347c9.795,0,14.01-9.332,9.685-25.845l-39.711-151.639
	c-0.002-0.007-0.004-0.016-0.004-0.021l-11.541-44.062l95.881-78.547l60.63-49.668C722.759,333.843,718.15,319.659,693.127,318.205z
	 M600.896,369.01l-78.76,64.52c-3.828,3.138-10.094,8.271-13.924,11.408l-10.885,8.916c-3.828,3.138-5.936,9.622-4.682,14.41
	l3.566,13.611c1.254,4.788,3.307,12.624,4.561,17.412l5.352,20.434c1.254,4.788,2.281,8.879,2.281,9.091s0.408,1.776,0.908,3.478
	c0.502,1.701,1.938,7.012,3.191,11.801l14.059,53.688c1.254,4.788-1.129,6.52-5.295,3.848l-85.701-54.967
	c-4.166-2.672-10.984-7.045-15.15-9.717l-11.844-7.596c-2.209-1.418-5.164-2.075-8.074-1.989V214.298l0.5-1.281l23.725,60.776
	c1.801,4.611,4.746,12.156,6.547,16.768l10.025,25.682c1.801,4.611,4.746,12.156,6.547,16.768l5.115,13.104
	c1.801,4.611,7.316,8.618,12.258,8.905l14.045,0.816c4.943,0.287,13.029,0.757,17.971,1.044l101.641,5.904
	C603.816,363.071,604.727,365.873,600.896,369.01z"/>
</svg>
