<?xml version="1.0" encoding="utf-8"?>
<!-- Generator: Adobe Illustrator 16.0.0, SVG Export Plug-In . SVG Version: 6.00 Build 0)  -->
<!DOCTYPE svg PUBLIC "-//W3C//DTD SVG 1.1 Tiny//EN" "http://www.w3.org/Graphics/SVG/1.1/DTD/svg11-tiny.dtd">
<svg version="1.1" baseProfile="tiny" id="shapes" xmlns="http://www.w3.org/2000/svg" xmlns:xlink="http://www.w3.org/1999/xlink"
	 x="0px" y="0px" width="800px" height="800px" viewBox="0 0 800 800" xml:space="preserve">
<path d="M692.127,318.205l-78.242-4.545l-123.738-7.188l-16.572-42.449l-28.503-73.012l-28.5-73.009
	c0-0.001-0.001-0.002-0.001-0.003c-9.114-23.342-24.025-23.344-33.139-0.006c-0.001,0.003-0.003,0.006-0.004,0.009l-28.501,73.009
	l-28.504,73.016l-16.569,42.445l-123.738,7.188l-78.244,4.545c-25.02,1.455-29.629,15.636-10.247,31.518
	c0.001,0.001,0.002,0.003,0.004,0.004l60.629,49.668l60.633,49.671l35.249,28.876l-31.4,119.903l-19.856,75.819
	c-6.35,24.246,5.716,33.014,26.814,19.482l65.972-42.313L400,583.916l170.33,109.246c21.082,13.507,33.136,4.738,26.787-19.498
	l-39.711-151.639c-0.002-0.007-0.004-0.016-0.004-0.021l-11.541-44.062l95.881-78.547l60.63-49.668
	C721.759,333.843,717.15,319.659,692.127,318.205z"/>
</svg>
