<?xml version="1.0" encoding="utf-8"?>
<!-- Generator: Adobe Illustrator 16.0.0, SVG Export Plug-In . SVG Version: 6.00 Build 0)  -->
<!DOCTYPE svg PUBLIC "-//W3C//DTD SVG 1.1 Tiny//EN" "http://www.w3.org/Graphics/SVG/1.1/DTD/svg11-tiny.dtd">
<svg version="1.1" baseProfile="tiny" id="shapes" xmlns="http://www.w3.org/2000/svg" xmlns:xlink="http://www.w3.org/1999/xlink"
	 x="0px" y="0px" width="800px" height="800px" viewBox="0 0 800 800" xml:space="preserve">
<g>
	<circle cx="400" cy="400" r="50"/>
	<path d="M734.5,375.5h-37.509C685.2,230.63,569.802,115.083,425,103.053V66c0-8.25-6.75-15-15-15h-20c-8.25,0-15,6.75-15,15v37.053
		C230.197,115.083,114.8,230.63,103.009,375.5H65.5c-8.25,0-15,6.75-15,15v20c0,8.25,6.75,15,15,15h37.597
		C115.338,569.9,230.531,684.945,375,696.947V735c0,8.25,6.75,15,15,15h20c8.25,0,15-6.75,15-15v-38.053
		C569.468,684.945,684.662,569.9,696.902,425.5H734.5c8.25,0,15-6.75,15-15v-20C749.5,382.25,742.75,375.5,734.5,375.5z
		 M619.321,492.621c-11.984,28.334-29.153,53.793-51.03,75.67s-47.336,39.046-75.67,51.03c-21.642,9.154-44.3,14.964-67.621,17.382
		V566c0-8.25-6.75-15-15-15h-20c-8.25,0-15,6.75-15,15v70.703c-23.322-2.418-45.98-8.228-67.622-17.382
		c-28.333-11.984-53.792-29.153-75.669-51.03s-39.046-47.336-51.03-75.67c-9.088-21.486-14.877-43.976-17.326-67.121H234.5
		c8.25,0,15-6.75,15-15v-20c0-8.25-6.75-15-15-15h-71.259c2.386-23.498,8.218-46.325,17.438-68.122
		c11.984-28.334,29.153-53.792,51.03-75.669s47.335-39.046,75.669-51.03c21.642-9.154,44.3-14.964,67.622-17.382V235
		c0,8.25,6.75,15,15,15h20c8.25,0,15-6.75,15-15v-71.704c23.321,2.418,45.979,8.229,67.621,17.382
		c28.334,11.984,53.793,29.153,75.67,51.03s39.046,47.336,51.03,75.669c9.22,21.797,15.052,44.624,17.438,68.122H565.5
		c-8.25,0-15,6.75-15,15v20c0,8.25,6.75,15,15,15h71.147C634.198,448.646,628.41,471.135,619.321,492.621z"/>
</g>
</svg>
