<?xml version="1.0" encoding="utf-8"?>
<!-- Generator: Adobe Illustrator 16.0.0, SVG Export Plug-In . SVG Version: 6.00 Build 0)  -->
<!DOCTYPE svg PUBLIC "-//W3C//DTD SVG 1.1 Tiny//EN" "http://www.w3.org/Graphics/SVG/1.1/DTD/svg11-tiny.dtd">
<svg version="1.1" baseProfile="tiny" xmlns="http://www.w3.org/2000/svg" xmlns:xlink="http://www.w3.org/1999/xlink" x="0px"
	 y="0px" width="800px" height="800px" viewBox="0 0 800 800" xml:space="preserve">
<g id="guides">
	<g>
	</g>
	<g>
	</g>
	<g>
	</g>
	<g>
	</g>
	<g>
	</g>
	<g>
	</g>
	<g>
	</g>
	<g>
	</g>
	<g>
	</g>
	<g>
	</g>
	<g>
	</g>
	<g>
	</g>
	<g>
	</g>
	<g>
	</g>
	<g>
	</g>
	<g>
	</g>
</g>
<g id="shapes">
	<path display="none" d="M350.841,101H212.356c-13.304,0.011-16.491,7.716-7.083,17.122L488.044,401L205.272,683.878
		c-9.407,9.406-6.22,17.112,7.083,17.122h138.487c13.303,0.01,31.883-7.679,41.289-17.085l206.522-206.519l59.292-59.296
		c8.229-8.229,9.26-21.044,3.088-30.42c-0.883-1.339-1.911-2.608-3.088-3.783l-59.294-59.295L392.13,118.083
		C382.725,108.677,364.145,100.99,350.841,101z"/>
	<path display="none" d="M450.159,101h138.484c13.305,0.011,16.491,7.716,7.084,17.122L312.957,401l282.771,282.878
		c9.407,9.406,6.221,17.112-7.084,17.122H450.158c-13.303,0.01-31.883-7.679-41.289-17.085L202.347,477.396l-59.292-59.296
		c-8.23-8.229-9.26-21.044-3.088-30.42c0.883-1.339,1.911-2.608,3.088-3.783l59.294-59.295l206.52-206.52
		C418.275,108.677,436.855,100.99,450.159,101z"/>
	<path display="none" d="M100,336.841l0.878-138.484c0.011-13.305,7.716-16.491,17.122-7.084l282,282.77l282.878-282.771
		c9.406-9.407,17.112-6.221,17.122,7.084v138.486c0.01,13.303-7.679,31.883-17.085,41.289L476.396,584.654l-59.295,59.291
		c-8.23,8.23-21.044,9.26-30.42,3.088c-1.339-0.883-2.608-1.91-3.783-3.088l-59.295-59.293l-206.52-206.521
		C107.677,368.725,99.99,350.145,100,336.841z"/>
	<path display="none" d="M100,499.16l0.878,138.484c0.011,13.305,7.716,16.491,17.122,7.084l282-282.771l282.878,282.772
		c9.406,9.407,17.112,6.221,17.122-7.084V499.159c0.01-13.303-7.679-31.883-17.085-41.289L476.396,251.347l-59.295-59.292
		c-8.23-8.229-21.044-9.26-30.42-3.088c-1.339,0.883-2.608,1.911-3.783,3.088l-59.295,59.294L117.083,457.87
		C107.677,467.276,99.99,485.856,100,499.16z"/>
	<path display="none" d="M670,300H130c-16.5,0-30,13.5-30,30v6.841c-0.01,13.304,7.677,31.884,17.083,41.29l206.52,206.521
		l59.295,59.293c1.175,1.178,2.444,2.205,3.783,3.088c9.376,6.172,22.19,5.143,30.42-3.088l59.295-59.291l206.519-206.523
		c9.406-9.406,17.095-27.986,17.085-41.289V330C700,313.5,686.5,300,670,300z"/>
	<path display="none" d="M475,100c-124.264,0-225,100.736-225,225c0,48.947,15.638,94.236,42.178,131.164L109.386,621.175
		c-11.667,11.668-11.667,30.76,0,42.427l28.284,28.284c11.667,11.667,30.759,11.667,42.426,0l165.417-182.868
		C382.131,534.831,426.792,550,475,550c124.264,0,225-100.736,225-225C700,200.736,599.264,100,475,100z M475,474.625
		c-82.636,0-149.625-66.989-149.625-149.625S392.364,175.375,475,175.375S624.625,242.364,624.625,325S557.636,474.625,475,474.625z
		"/>
	<path display="none" d="M475,100c-124.264,0-225,100.736-225,225c0,48.947,15.638,94.236,42.178,131.164L109.386,621.175
		c-11.667,11.668-11.667,30.76,0,42.427l28.284,28.284c11.667,11.667,30.759,11.667,42.426,0l165.417-182.868
		C382.131,534.831,426.792,550,475,550c124.264,0,225-100.736,225-225C700,200.736,599.264,100,475,100z M475,474.625
		c-82.636,0-149.625-66.989-149.625-149.625S392.364,175.375,475,175.375S624.625,242.364,624.625,325S557.636,474.625,475,474.625z
		 M575,350h-75v75h-50v-75h-75v-50h75v-75h50v75h75V350z"/>
	<path display="none" d="M475,100c-124.264,0-225,100.736-225,225c0,48.947,15.638,94.236,42.178,131.164L109.386,621.175
		c-11.667,11.668-11.667,30.76,0,42.427l28.284,28.284c11.667,11.667,30.759,11.667,42.426,0l165.417-182.868
		C382.131,534.831,426.792,550,475,550c124.264,0,225-100.736,225-225C700,200.736,599.264,100,475,100z M475,474.625
		c-82.636,0-149.625-66.989-149.625-149.625S392.364,175.375,475,175.375S624.625,242.364,624.625,325S557.636,474.625,475,474.625z
		 M575,350H375v-50h200V350z"/>
	<path display="none" d="M685,350H450V115c0-8.25-6.75-15-15-15h-70c-8.25,0-15,6.75-15,15v235H115c-8.25,0-15,6.75-15,15v70
		c0,8.25,6.75,15,15,15h235v235c0,8.25,6.75,15,15,15h70c8.25,0,15-6.75,15-15V450h235c8.25,0,15-6.75,15-15v-70
		C700,356.75,693.25,350,685,350z"/>
	<path display="none" d="M606.12,106.425L400,312.545l-206.12-206.12c-7.236-7.236-19.077-7.236-26.313,0l-61.398,61.397
		c-7.236,7.236-7.236,19.077,0,26.313l206.121,206.12l-206.121,206.12c-7.236,7.236-7.236,19.077,0,26.312l61.398,61.398
		c7.236,7.236,19.077,7.236,26.313,0L400,487.968l206.12,206.119c7.236,7.236,19.077,7.236,26.313,0l61.397-61.398
		c7.236-7.235,7.236-19.076,0-26.312l-206.12-206.12l206.12-206.12c7.236-7.236,7.236-19.077,0-26.313l-61.397-61.397
		C625.197,99.189,613.356,99.189,606.12,106.425z"/>
	<path display="none" d="M685,350H115c-8.25,0-15,6.75-15,15v70c0,8.25,6.75,15,15,15h570c8.25,0,15-6.75,15-15v-70
		C700,356.75,693.25,350,685,350z"/>
	<path display="none" d="M700,365v70c0,8.25-6.75,15-15,15H115c-8.25,0-15-6.75-15-15v-70c0-8.25,6.75-15,15-15h570
		C693.25,350,700,356.75,700,365z M685,550H115c-8.25,0-15,6.75-15,15v70c0,8.25,6.75,15,15,15h570c8.25,0,15-6.75,15-15v-70
		C700,556.75,693.25,550,685,550z M685,150H115c-8.25,0-15,6.75-15,15v70c0,8.25,6.75,15,15,15h570c8.25,0,15-6.75,15-15v-70
		C700,156.75,693.25,150,685,150z"/>
	<path display="none" d="M700,365v70c0,8.25-6.75,15-15,15H265c-8.25,0-15-6.75-15-15v-70c0-8.25,6.75-15,15-15h420
		C693.25,350,700,356.75,700,365z M585,550H265c-8.25,0-15,6.75-15,15v70c0,8.25,6.75,15,15,15h320c8.25,0,15-6.75,15-15v-70
		C600,556.75,593.25,550,585,550z M685,150H265c-8.25,0-15,6.75-15,15v70c0,8.25,6.75,15,15,15h420c8.25,0,15-6.75,15-15v-70
		C700,156.75,693.25,150,685,150z M200,365v70c0,8.25-6.75,15-15,15h-70c-8.25,0-15-6.75-15-15v-70c0-8.25,6.75-15,15-15h70
		C193.25,350,200,356.75,200,365z M185,550h-70c-8.25,0-15,6.75-15,15v70c0,8.25,6.75,15,15,15h70c8.25,0,15-6.75,15-15v-70
		C200,556.75,193.25,550,185,550z M185,150h-70c-8.25,0-15,6.75-15,15v70c0,8.25,6.75,15,15,15h70c8.25,0,15-6.75,15-15v-70
		C200,156.75,193.25,150,185,150z"/>
	<path display="none" d="M694.802,602.467c4.311,7.034,1.859,15.923-5.448,19.752c0,0-64.531,33.82-105.354,47.31
		c-61.772,20.412-125.925,30.289-190,29.631c-59.729-0.613-119.391-10.381-176.997-29.302
		c-41.174-13.524-106.354-47.645-106.354-47.645c-7.309-3.826-9.762-12.713-5.452-19.747c0,0,6.157-10.047,13.154-21.466
		c7.967-13,16.062-26.21,16.062-26.21c4.311-7.034,13.798-9.623,21.083-5.751c0,0,44.425,23.605,74.5,34.477
		c52.865,19.109,107.89,29.053,163.002,29.828c51.831,0.729,103.739-6.648,154-22.133c38.112-11.742,97.417-42.334,97.417-42.334
		c7.332-3.782,16.857-1.121,21.168,5.913c0,0,6.87,11.212,14.224,23.212C687.419,590.42,694.802,602.467,694.802,602.467z
		 M596,350.418H475V115.129c0-8.25-6.75-15-15-15L340,100c-8.25,0-15,6.75-15,15v235.418H207c-6.239,0-7.538,3.401-2.884,7.559
		L391.54,497.882c4.654,4.157,12.268,4.157,16.921,0l190.423-139.905C603.537,353.819,602.239,350.418,596,350.418z"/>
	<path display="none" d="M600,595c-16.95-115.769-74-104-148.443-138.819c-4.771-2.231-11.449-13.591-19.197-25.517
		C490.768,414.506,529.718,355.025,538,285c3.938-33.295-2.866-61.974-16.719-85.077C526.112,175.098,562,164,562,164
		c-63.316-46.836-166.485-31.236-192.748-26.272C306.352,149.182,255.959,196.983,262,285
		c4.802,69.977,45.768,128.982,104.475,145.432c-8.104,11.975-15.091,23.438-20.032,25.749C272,491,214.95,479.231,198,595
		c-6.443,44.006-9,78-12,105h213h213C609,673,606.442,639.006,600,595z"/>
	<path d="M538.253,436.15c-4.944,7.61-9.207,14.859-12.252,16.283C519.687,455.388,497.89,463.836,492,466
		c31.455,13.973,66.563,54.242,76.131,97.175C575,594,578,649.888,578,650.655h121.488c-1.914-17.23-7.567-81.552-11.68-109.634
		c-10.815-73.878-47.223-66.367-94.729-88.588c-3.152-1.475-7.611-8.79-12.783-16.432C615,416,623.006,387.358,629,343
		c5-37-9.976-92.031-72-93c-64-1-76,61-72,93C493.077,407.62,529.613,433.761,538.253,436.15z"/>
	<path d="M509,595c-16.95-115.769-74-104-148.443-138.819c-4.771-2.231-11.449-13.591-19.197-25.517
		C399.768,414.506,438.718,355.025,447,285c3.938-33.295-2.866-61.974-16.719-85.077C435.112,175.098,471,164,471,164
		c-63.316-46.836-166.485-31.236-192.748-26.272C215.352,149.182,164.959,196.983,171,285
		c4.802,69.977,45.768,128.982,104.475,145.432c-8.104,11.975-15.091,23.438-20.032,25.749C181,491,123.95,479.231,107,595
		c-6.443,44.006-9,78-12,105h213h213C518,673,515.442,639.006,509,595z"/>
</g>
</svg>
