<?xml version="1.0" encoding="utf-8"?>
<!-- Generator: Adobe Illustrator 16.0.0, SVG Export Plug-In . SVG Version: 6.00 Build 0)  -->
<!DOCTYPE svg PUBLIC "-//W3C//DTD SVG 1.1//EN" "http://www.w3.org/Graphics/SVG/1.1/DTD/svg11.dtd">
<svg version="1.1" id="Layer_1" xmlns="http://www.w3.org/2000/svg" xmlns:xlink="http://www.w3.org/1999/xlink" x="0px" y="0px"
	 width="800px" height="800px" viewBox="0 0 800 800" enable-background="new 0 0 800 800" xml:space="preserve">
<g id="guides">
</g>
<g>
	<path d="M300,400v-50h101V250h50v100h99v50h-99v100h-50V400H300z"/>
	<path d="M427.513,101c-151.244,0-273.852,122.608-273.852,273.852c0,61.377,20.193,118.036,54.295,163.699L81.459,652.743
		c-11.291,11.291-11.291,29.766,0,41.056l27.37,27.37c11.291,11.289,29.765,11.289,41.055,0l114.371-126.438
		c45.588,33.904,102.078,53.972,163.258,53.972c151.244,0,273.852-122.606,273.852-273.852C701.364,223.608,578.757,101,427.513,101
		z M569.152,516.491c-37.833,37.833-88.135,58.669-141.64,58.669s-103.807-20.836-141.64-58.669
		c-37.833-37.833-58.669-88.135-58.669-141.64c0-53.504,20.835-103.806,58.669-141.639s88.135-58.669,141.64-58.669
		s103.806,20.835,141.64,58.669c37.832,37.833,58.669,88.135,58.669,141.639C627.821,428.356,606.984,478.658,569.152,516.491z"/>
</g>
</svg>
