<?xml version="1.0" encoding="utf-8"?>
<!-- Generator: Adobe Illustrator 16.0.0, SVG Export Plug-In . SVG Version: 6.00 Build 0)  -->
<!DOCTYPE svg PUBLIC "-//W3C//DTD SVG 1.1//EN" "http://www.w3.org/Graphics/SVG/1.1/DTD/svg11.dtd">
<svg version="1.1" id="Layer_1" xmlns="http://www.w3.org/2000/svg" xmlns:xlink="http://www.w3.org/1999/xlink" x="0px" y="0px"
	 width="800px" height="800px" viewBox="0 0 800 800" enable-background="new 0 0 800 800" xml:space="preserve">
<g id="guides">
</g>
<g id="shapes">
	<path display="none" d="M350.841,101H212.356c-13.304,0.011-16.491,7.716-7.083,17.122L488.044,401L205.272,683.878
		c-9.407,9.406-6.22,17.112,7.083,17.122h138.487c13.303,0.01,31.883-7.679,41.289-17.085l206.522-206.519l59.292-59.297
		c8.229-8.229,9.26-21.044,3.088-30.42c-0.883-1.339-1.911-2.607-3.088-3.782l-59.294-59.296L392.13,118.083
		C382.725,108.677,364.145,100.99,350.841,101z"/>
	<path display="none" d="M450.159,101h138.483c13.306,0.011,16.491,7.716,7.084,17.122L312.957,401l282.771,282.878
		c9.406,9.406,6.221,17.112-7.084,17.122H450.158c-13.303,0.01-31.883-7.679-41.289-17.085L202.347,477.396L143.055,418.1
		c-8.23-8.229-9.26-21.044-3.088-30.42c0.883-1.339,1.911-2.607,3.088-3.782l59.294-59.296l206.52-206.52
		C418.275,108.677,436.855,100.99,450.159,101z"/>
	<path display="none" d="M100,336.841l0.878-138.484c0.011-13.305,7.716-16.491,17.122-7.084l282,282.77l282.878-282.771
		c9.406-9.407,17.112-6.221,17.122,7.084v138.486c0.01,13.303-7.679,31.883-17.085,41.289L476.396,584.654l-59.296,59.291
		c-8.229,8.229-21.044,9.26-30.419,3.088c-1.339-0.883-2.608-1.91-3.783-3.088l-59.295-59.293l-206.52-206.521
		C107.677,368.725,99.99,350.145,100,336.841z"/>
	<path display="none" d="M100,499.16l0.878,138.483c0.011,13.306,7.716,16.491,17.122,7.084l282-282.771l282.878,282.771
		c9.406,9.407,17.112,6.222,17.122-7.084V499.159c0.01-13.303-7.679-31.883-17.085-41.289L476.396,251.347l-59.296-59.292
		c-8.229-8.229-21.044-9.26-30.419-3.088c-1.339,0.883-2.608,1.911-3.783,3.088l-59.295,59.294L117.083,457.87
		C107.677,467.276,99.99,485.856,100,499.16z"/>
	<path display="none" d="M670,300H130c-16.5,0-30,13.5-30,30v6.841c-0.01,13.304,7.677,31.884,17.083,41.29l206.52,206.521
		l59.295,59.293c1.175,1.178,2.444,2.205,3.783,3.088c9.375,6.172,22.19,5.143,30.419-3.088l59.296-59.291l206.519-206.523
		c9.406-9.406,17.095-27.986,17.085-41.289V330C700,313.5,686.5,300,670,300z"/>
	<path display="none" d="M475,100c-124.264,0-225,100.736-225,225c0,48.947,15.638,94.236,42.178,131.164L109.386,621.175
		c-11.667,11.668-11.667,30.76,0,42.427l28.284,28.284c11.667,11.667,30.759,11.667,42.426,0l165.417-182.868
		C382.131,534.831,426.792,550,475,550c124.264,0,225-100.736,225-225C700,200.736,599.264,100,475,100z M475,474.625
		c-82.636,0-149.625-66.989-149.625-149.625S392.364,175.375,475,175.375S624.625,242.364,624.625,325S557.636,474.625,475,474.625z
		"/>
	<path display="none" d="M475,100c-124.264,0-225,100.736-225,225c0,48.947,15.638,94.236,42.178,131.164L109.386,621.175
		c-11.667,11.668-11.667,30.76,0,42.427l28.284,28.284c11.667,11.667,30.759,11.667,42.426,0l165.417-182.868
		C382.131,534.831,426.792,550,475,550c124.264,0,225-100.736,225-225C700,200.736,599.264,100,475,100z M475,474.625
		c-82.636,0-149.625-66.989-149.625-149.625S392.364,175.375,475,175.375S624.625,242.364,624.625,325S557.636,474.625,475,474.625z
		 M575,350h-75v75h-50v-75h-75v-50h75v-75h50v75h75V350z"/>
</g>
<g>
	<path d="M300,400v-50h250v50H300z"/>
	<path d="M427.513,101c-151.244,0-273.852,122.608-273.852,273.852c0,61.377,20.193,118.036,54.295,163.699L81.459,652.743
		c-11.291,11.291-11.291,29.766,0,41.056l27.37,27.37c11.291,11.289,29.765,11.289,41.055,0l114.371-126.438
		c45.588,33.904,102.078,53.972,163.258,53.972c151.244,0,273.852-122.606,273.852-273.852C701.364,223.608,578.757,101,427.513,101
		z M569.152,516.491c-37.833,37.833-88.135,58.669-141.64,58.669s-103.807-20.836-141.64-58.669
		c-37.833-37.833-58.669-88.135-58.669-141.64c0-53.504,20.835-103.806,58.669-141.639s88.135-58.669,141.64-58.669
		s103.806,20.835,141.64,58.669c37.832,37.833,58.669,88.135,58.669,141.639C627.821,428.356,606.984,478.658,569.152,516.491z"/>
</g>
</svg>
